<svg version="1.1" id="Layer_1" xmlns="http://www.w3.org/2000/svg" xmlns:xlink="http://www.w3.org/1999/xlink" x="0px" y="0px"
	 width="100%" viewBox="0 0 1140 1080" enable-background="new 0 0 1140 1080" xml:space="preserve">
<path fill="#67A2BD" opacity="1.000000" stroke="none" 
	d="
M538.000000,1081.000000 
	C358.686737,1081.000000 179.873505,1081.000000 1.030123,1081.000000 
	C1.030123,721.060486 1.030123,361.121033 1.030123,1.090763 
	C380.896790,1.090763 760.793640,1.090763 1140.845215,1.090763 
	C1140.845215,360.999939 1140.845215,720.999939 1140.845215,1081.000000 
	C940.120605,1081.000000 739.310303,1081.000000 538.000000,1081.000000 
M921.730530,633.500061 
	C921.754089,561.180725 921.921997,488.860840 921.628662,416.542816 
	C921.589600,406.915863 919.856140,397.150574 917.698608,387.726044 
	C916.137024,380.904724 911.550537,375.541290 904.526184,372.813995 
	C894.610657,368.964233 884.561584,370.420837 875.297241,373.802948 
	C852.574768,382.098297 830.271606,391.535492 807.726746,400.326141 
	C791.180603,406.777802 774.619995,413.219971 757.873474,419.120331 
	C746.502075,423.126862 735.684692,427.151245 730.745239,439.667603 
	C727.167664,448.732910 721.749573,456.830902 721.799927,467.406311 
	C722.122314,535.058533 721.973083,602.713074 721.965942,670.366821 
	C721.960449,722.856812 721.928772,775.346802 721.929077,827.836792 
	C721.929138,834.501892 724.073792,835.854919 730.168152,833.290833 
	C754.014282,823.258179 777.747559,812.942871 801.754395,803.309814 
	C833.108521,790.728577 864.572876,778.403320 896.202759,766.535400 
	C914.974243,759.492126 921.373474,750.706238 921.547241,730.481201 
	C921.822021,698.489319 921.689148,666.494019 921.730530,633.500061 
M383.572906,778.930725 
	C387.954010,777.529358 392.259644,775.399597 396.737854,774.935791 
	C401.035065,774.490784 402.772583,772.916565 402.805603,768.887939 
	C402.823364,766.722046 402.855835,764.556152 402.855896,762.390259 
	C402.858429,667.580627 402.826813,572.771057 402.904938,477.961456 
	C402.913055,468.113007 402.204010,458.702454 398.504822,449.232422 
	C390.452698,428.618927 383.455963,407.592712 376.061005,386.723450 
	C374.765472,383.067383 372.321503,382.353943 368.994324,383.728729 
	C366.407135,384.797729 363.894135,386.048859 361.295380,387.086853 
	C340.191345,395.516052 319.111633,404.008026 297.951416,412.294220 
	C278.190063,420.032684 258.287170,427.411285 238.558777,435.231384 
	C232.469406,437.645081 226.466324,440.535767 220.915939,443.997253 
	C208.343536,451.838074 203.955551,463.682343 203.990982,478.260162 
	C204.201202,564.737915 204.064316,651.216614 204.065811,737.694946 
	C204.066208,760.021851 203.948273,782.351379 204.253418,804.674683 
	C204.469727,820.499084 212.866211,831.620850 227.705048,837.203491 
	C233.071213,839.222351 238.154800,839.613770 243.647141,837.289307 
	C270.863068,825.770996 298.166840,814.460083 325.441650,803.080872 
	C344.571838,795.099609 363.705200,787.125793 383.572906,778.930725 
M690.127686,282.363464 
	C679.846985,266.320740 667.690063,252.096786 652.259399,240.603149 
	C627.440918,222.116867 599.841675,211.487259 568.946777,209.996887 
	C543.821411,208.784821 520.138489,215.240494 497.427917,225.376251 
	C459.699707,242.214417 434.799652,270.733582 422.259399,309.944092 
	C419.249146,319.356445 417.132385,329.116882 415.415680,338.860107 
	C414.130798,346.152435 413.072693,353.787720 413.840576,361.067017 
	C414.963409,371.711365 417.489624,382.251007 419.995209,392.696747 
	C424.600281,411.895203 431.852966,430.181000 441.769653,447.207153 
	C461.719482,481.459412 481.765717,515.669434 502.570953,549.404236 
	C514.732910,569.124329 529.139465,587.328674 545.701965,603.692688 
	C553.170044,611.071228 561.506775,611.265503 570.218262,607.418884 
	C586.360657,600.291138 596.625977,586.605042 605.926270,572.464355 
	C612.661255,562.224060 617.497681,550.741638 624.149353,540.438538 
	C634.431946,524.511353 645.489868,509.082092 656.315796,493.509003 
	C666.948364,478.214203 677.364502,462.812439 684.284363,445.361267 
	C690.067932,430.775635 696.346558,416.369141 701.601929,401.597260 
	C705.109131,391.739105 708.645569,381.513794 709.609314,371.213318 
	C711.210205,354.103394 711.242432,336.831360 706.185547,319.930939 
	C702.313232,306.989563 697.266174,294.656097 690.127686,282.363464 
M498.456390,783.886292 
	C517.564392,789.448059 536.681091,794.980347 555.778076,800.579651 
	C575.357910,806.320679 594.897278,812.200439 614.493774,817.883484 
	C632.664001,823.153015 650.841187,828.410156 669.108459,833.326782 
	C676.157227,835.223999 678.294983,833.227112 678.296021,826.072510 
	C678.309875,731.775330 678.309387,637.478149 678.284241,543.180969 
	C678.283691,541.264954 677.945312,539.349060 677.627014,535.975281 
	C675.682861,537.896973 674.476990,538.774048 673.676758,539.931641 
	C668.852844,546.909546 664.433899,554.189880 659.295288,560.923157 
	C648.263672,575.378174 637.391663,590.009338 625.479736,603.721741 
	C615.175354,615.583679 604.097107,626.927185 592.302368,637.295532 
	C581.386719,646.891174 567.484253,649.046143 553.463013,646.283142 
	C536.513000,642.942993 522.693420,633.525818 510.035156,621.982910 
	C495.849670,609.047424 488.094513,591.410034 476.053772,576.898743 
	C469.479645,568.975708 464.558411,559.681702 458.886108,551.009644 
	C454.922577,544.949890 451.065765,538.814087 446.881378,532.910645 
	C446.057983,531.748962 443.880981,530.882385 442.467896,531.050781 
	C441.611816,531.152771 440.866272,533.450928 440.373047,534.867493 
	C440.062347,535.759949 440.307281,536.846741 440.307281,537.846313 
	C440.307068,610.984924 440.307098,684.123596 440.308563,757.262207 
	C440.308594,758.761597 440.257446,760.264954 440.346344,761.759644 
	C440.757996,768.678040 444.986755,773.736084 451.676056,775.002930 
	C467.006866,777.906372 482.359131,780.696533 498.456390,783.886292 
z"/>
<path fill="#FBFDFE" opacity="1.000000" stroke="none" 
	d="
M921.729675,634.000122 
	C921.689148,666.494019 921.822021,698.489319 921.547241,730.481201 
	C921.373474,750.706238 914.974243,759.492126 896.202759,766.535400 
	C864.572876,778.403320 833.108521,790.728577 801.754395,803.309814 
	C777.747559,812.942871 754.014282,823.258179 730.168152,833.290833 
	C724.073792,835.854919 721.929138,834.501892 721.929077,827.836792 
	C721.928772,775.346802 721.960449,722.856812 721.965942,670.366821 
	C721.973083,602.713074 722.122314,535.058533 721.799927,467.406311 
	C721.749573,456.830902 727.167664,448.732910 730.745239,439.667603 
	C735.684692,427.151245 746.502075,423.126862 757.873474,419.120331 
	C774.619995,413.219971 791.180603,406.777802 807.726746,400.326141 
	C830.271606,391.535492 852.574768,382.098297 875.297241,373.802948 
	C884.561584,370.420837 894.610657,368.964233 904.526184,372.813995 
	C911.550537,375.541290 916.137024,380.904724 917.698608,387.726044 
	C919.856140,397.150574 921.589600,406.915863 921.628662,416.542816 
	C921.921997,488.860840 921.754089,561.180725 921.729675,634.000122 
z"/>
<path fill="#FBFDFE" opacity="1.000000" stroke="none" 
	d="
M383.205017,779.039673 
	C363.705200,787.125793 344.571838,795.099609 325.441650,803.080872 
	C298.166840,814.460083 270.863068,825.770996 243.647141,837.289307 
	C238.154800,839.613770 233.071213,839.222351 227.705048,837.203491 
	C212.866211,831.620850 204.469727,820.499084 204.253418,804.674683 
	C203.948273,782.351379 204.066208,760.021851 204.065811,737.694946 
	C204.064316,651.216614 204.201202,564.737915 203.990982,478.260162 
	C203.955551,463.682343 208.343536,451.838074 220.915939,443.997253 
	C226.466324,440.535767 232.469406,437.645081 238.558777,435.231384 
	C258.287170,427.411285 278.190063,420.032684 297.951416,412.294220 
	C319.111633,404.008026 340.191345,395.516052 361.295380,387.086853 
	C363.894135,386.048859 366.407135,384.797729 368.994324,383.728729 
	C372.321503,382.353943 374.765472,383.067383 376.061005,386.723450 
	C383.455963,407.592712 390.452698,428.618927 398.504822,449.232422 
	C402.204010,458.702454 402.913055,468.113007 402.904938,477.961456 
	C402.826813,572.771057 402.858429,667.580627 402.855896,762.390259 
	C402.855835,764.556152 402.823364,766.722046 402.805603,768.887939 
	C402.772583,772.916565 401.035065,774.490784 396.737854,774.935791 
	C392.259644,775.399597 387.954010,777.529358 383.205017,779.039673 
z"/>
<path fill="#FBFCFE" opacity="1.000000" stroke="none" 
	d="
M690.278503,282.698120 
	C697.266174,294.656097 702.313232,306.989563 706.185547,319.930939 
	C711.242432,336.831360 711.210205,354.103394 709.609314,371.213318 
	C708.645569,381.513794 705.109131,391.739105 701.601929,401.597260 
	C696.346558,416.369141 690.067932,430.775635 684.284363,445.361267 
	C677.364502,462.812439 666.948364,478.214203 656.315796,493.509003 
	C645.489868,509.082092 634.431946,524.511353 624.149353,540.438538 
	C617.497681,550.741638 612.661255,562.224060 605.926270,572.464355 
	C596.625977,586.605042 586.360657,600.291138 570.218262,607.418884 
	C561.506775,611.265503 553.170044,611.071228 545.701965,603.692688 
	C529.139465,587.328674 514.732910,569.124329 502.570953,549.404236 
	C481.765717,515.669434 461.719482,481.459412 441.769653,447.207153 
	C431.852966,430.181000 424.600281,411.895203 419.995209,392.696747 
	C417.489624,382.251007 414.963409,371.711365 413.840576,361.067017 
	C413.072693,353.787720 414.130798,346.152435 415.415680,338.860107 
	C417.132385,329.116882 419.249146,319.356445 422.259399,309.944092 
	C434.799652,270.733582 459.699707,242.214417 497.427917,225.376251 
	C520.138489,215.240494 543.821411,208.784821 568.946777,209.996887 
	C599.841675,211.487259 627.440918,222.116867 652.259399,240.603149 
	C667.690063,252.096786 679.846985,266.320740 690.278503,282.698120 
M548.853333,302.326172 
	C523.410767,309.699219 506.133881,335.814636 516.497314,366.054932 
	C525.180359,391.391907 550.088135,402.829803 574.688171,396.557098 
	C601.392334,389.747833 616.795715,363.465332 609.676575,336.892151 
	C602.596863,310.466339 577.992615,295.606842 548.853333,302.326172 
z"/>
<path fill="#FBFCFE" opacity="1.000000" stroke="none" 
	d="
M498.079529,783.709473 
	C482.359131,780.696533 467.006866,777.906372 451.676056,775.002930 
	C444.986755,773.736084 440.757996,768.678040 440.346344,761.759644 
	C440.257446,760.264954 440.308594,758.761597 440.308563,757.262207 
	C440.307098,684.123596 440.307068,610.984924 440.307281,537.846313 
	C440.307281,536.846741 440.062347,535.759949 440.373047,534.867493 
	C440.866272,533.450928 441.611816,531.152771 442.467896,531.050781 
	C443.880981,530.882385 446.057983,531.748962 446.881378,532.910645 
	C451.065765,538.814087 454.922577,544.949890 458.886108,551.009644 
	C464.558411,559.681702 469.479645,568.975708 476.053772,576.898743 
	C488.094513,591.410034 495.849670,609.047424 510.035156,621.982910 
	C522.693420,633.525818 536.513000,642.942993 553.463013,646.283142 
	C567.484253,649.046143 581.386719,646.891174 592.302368,637.295532 
	C604.097107,626.927185 615.175354,615.583679 625.479736,603.721741 
	C637.391663,590.009338 648.263672,575.378174 659.295288,560.923157 
	C664.433899,554.189880 668.852844,546.909546 673.676758,539.931641 
	C674.476990,538.774048 675.682861,537.896973 677.627014,535.975281 
	C677.945312,539.349060 678.283691,541.264954 678.284241,543.180969 
	C678.309387,637.478149 678.309875,731.775330 678.296021,826.072510 
	C678.294983,833.227112 676.157227,835.223999 669.108459,833.326782 
	C650.841187,828.410156 632.664001,823.153015 614.493774,817.883484 
	C594.897278,812.200439 575.357910,806.320679 555.778076,800.579651 
	C536.681091,794.980347 517.564392,789.448059 498.079529,783.709473 
z"/>
<path fill="#69A3BE" opacity="1.000000" stroke="none" 
	d="
M549.232422,302.160553 
	C577.992615,295.606842 602.596863,310.466339 609.676575,336.892151 
	C616.795715,363.465332 601.392334,389.747833 574.688171,396.557098 
	C550.088135,402.829803 525.180359,391.391907 516.497314,366.054932 
	C506.133881,335.814636 523.410767,309.699219 549.232422,302.160553 
z"/>
</svg>